<svg width="100" height="100" viewBox="0 0 100 100" fill="none" xmlns="http://www.w3.org/2000/svg">
<rect width="100" height="100" fill="white"/>
<path d="M49.9999 12.5L51.2291 9.625C50.8406 9.4588 50.4225 9.37311 49.9999 9.37311C49.5774 9.37311 49.1592 9.4588 48.7708 9.625L49.9999 12.5ZM49.9999 87.5L48.4499 90.2125C48.922 90.4822 49.4563 90.624 49.9999 90.624C50.5436 90.624 51.0778 90.4822 51.5499 90.2125L49.9999 87.5ZM48.7666 9.62916L22.1333 21.0417L24.5833 26.7917L51.2249 15.375L48.7666 9.62916ZM17.7083 27.7458V56.3292H23.9583V27.7458H17.7083ZM31.8791 80.7458L48.4499 90.2125L51.5499 84.7875L34.9791 75.3167L31.8791 80.7458ZM51.5499 90.2125L68.1208 80.7458L65.0208 75.3167L48.4499 84.7875L51.5499 90.2125ZM82.2916 56.325V27.75H76.0416V56.3333L82.2916 56.325ZM77.8749 21.0458L51.2291 9.62916L48.7708 15.3708L75.4124 26.7917L77.8749 21.0458ZM82.2916 27.75C82.2916 24.8333 80.5541 22.1958 77.8749 21.0458L75.4124 26.7917C75.5995 26.8724 75.7589 27.0062 75.8707 27.1765C75.9825 27.3468 76.0419 27.5462 76.0416 27.75H82.2916ZM68.1208 80.7458C72.4252 78.2861 76.003 74.7322 78.4916 70.4443C80.9802 66.1564 82.2911 61.2869 82.2916 56.3292H76.0416C76.0408 60.1845 75.021 63.9712 73.0857 67.3056C71.1503 70.64 68.368 73.4037 65.0208 75.3167L68.1208 80.7458ZM17.7083 56.3292C17.7087 61.2869 19.0196 66.1564 21.5082 70.4443C23.9968 74.7322 27.5746 78.2861 31.8791 80.7458L34.9791 75.3167C31.6312 73.4033 28.8486 70.639 26.9131 67.3038C24.9777 63.9686 23.9583 60.1811 23.9583 56.325L17.7083 56.3292ZM22.1249 21.0417C20.8141 21.6041 19.697 22.5385 18.912 23.7294C18.127 24.9203 17.7084 26.3195 17.7083 27.7458H23.9583C23.9583 27.3292 24.2083 26.95 24.5916 26.7833L22.1249 21.0417Z" fill="black"/>
<path d="M62.5 41.6667L45.8333 58.3334L37.5 50" stroke="black" stroke-width="5.5" stroke-linecap="round" stroke-linejoin="round"/>
</svg>
