<svg xmlns="http://www.w3.org/2000/svg" viewBox="0 0 300 300" fill="none" preserveAspectRatio="xMidYMid meet" version="1.2" baseProfile="tiny-ps" xml:space="preserve"><title>Envault</title>
<rect width="300" height="300" fill="white"/>
<path d="M150 37.5L153.688 28.875C152.522 28.3765 151.268 28.1194 150 28.1194C148.732 28.1194 147.478 28.3765 146.312 28.875L150 37.5ZM150 262.5L145.35 270.638C146.766 271.447 148.369 271.872 150 271.872C151.631 271.872 153.234 271.447 154.65 270.638L150 262.5ZM146.3 28.8875L66.4 63.125L73.75 80.375L153.675 46.125L146.3 28.8875ZM53.125 83.2375V168.988H71.875V83.2375H53.125ZM95.6375 242.238L145.35 270.638L154.65 254.363L104.938 225.95L95.6375 242.238ZM154.65 270.638L204.363 242.238L195.062 225.95L145.35 254.363L154.65 270.638ZM246.875 168.975V83.25H228.125V169L246.875 168.975ZM233.625 63.1376L153.688 28.8875L146.312 46.1125L226.238 80.375L233.625 63.1376ZM246.875 83.25C246.875 74.5 241.663 66.5875 233.625 63.1376L226.238 80.375C226.799 80.6171 227.277 81.0185 227.612 81.5295C227.948 82.0406 228.126 82.6387 228.125 83.25H246.875ZM204.363 242.238C217.276 234.858 228.009 224.197 235.475 211.333C242.941 198.469 246.874 183.861 246.875 168.988H228.125C228.123 180.554 225.063 191.914 219.257 201.917C213.451 211.92 205.104 220.211 195.062 225.95L204.363 242.238ZM53.125 168.988C53.1263 183.861 57.0591 198.469 64.5249 211.333C71.9906 224.197 82.724 234.858 95.6375 242.238L104.938 225.95C94.8938 220.21 86.5459 211.917 80.7397 201.911C74.9335 191.906 71.8753 180.543 71.875 168.975L53.125 168.988ZM66.375 63.125C62.4426 64.8122 59.0914 67.6157 56.7362 71.1884C54.3811 74.761 53.1256 78.9585 53.125 83.2375H71.875C71.875 81.9875 72.625 80.85 73.775 80.35L66.375 63.125Z" fill="black"/>
<path d="M187.5 125L137.5 175L112.5 150" stroke="black" stroke-width="15" stroke-linecap="round" stroke-linejoin="round"/>
</svg>